<svg width="101" height="83" viewBox="0 0 101 83" fill="none" xmlns="http://www.w3.org/2000/svg">
<path d="M15.7039 39.0393C13.9527 37.349 13.0476 35.1004 13.0018 32.8364C12.9566 30.5731 13.7714 28.2888 15.4524 26.5286C17.1321 24.7696 19.3691 23.8591 21.6207 23.8137C23.8736 23.767 26.1448 24.5837 27.8971 26.2752L43.0262 40.9088L73.1471 2.44706L74.2262 3.27473L73.1459 2.44338C73.2319 2.3311 73.3296 2.23539 73.4382 2.15747C75.2302 0.597233 77.4794 -0.107114 79.678 0.0131407V0.0106865L79.7854 0.0205032C81.9967 0.167753 84.1568 1.15556 85.7517 2.94464C87.3741 4.7638 88.1095 7.0744 87.9869 9.33284H87.9893L87.9795 9.44083C87.8355 11.6238 86.8864 13.7571 85.1664 15.3505L49.0182 59.5807L49.0206 59.5832C48.9528 59.6697 48.8765 59.7439 48.7935 59.8089C47.101 61.3029 44.9635 62.0355 42.8382 61.9987C40.6952 61.9613 38.5565 61.1422 36.8927 59.5347L15.7039 39.0393Z" fill="black"/>
</svg>
