<svg width="72" height="75" viewBox="0 0 72 75" fill="none" xmlns="http://www.w3.org/2000/svg">
<path d="M54.792 0.506092H54.8053L54.8185 0.505388C55.8064 0.452944 56.7056 0.829308 57.5191 1.58472C57.5198 1.58544 57.5206 1.58616 57.5214 1.58688L70.3708 13.8445L70.3765 13.8498C71.0989 14.5177 71.494 15.4678 71.494 16.4856C71.494 17.5412 71.2034 18.4848 70.4911 19.1957L70.491 19.1956L70.483 19.2039L63.9873 25.9944L45.7088 8.36142L52.1431 1.69613L52.1432 1.6962L52.1501 1.68877C52.8898 0.890706 53.7855 0.506092 54.792 0.506092ZM2.01936 66.8173L6.69598 48.9606L24.4266 66.6574C23.4301 66.983 22.4249 67.3012 21.4167 67.6202L21.3684 67.6355C20.1215 68.03 18.8701 68.4259 17.6316 68.837L17.6313 68.8371C15.1361 69.6672 12.643 70.4967 10.083 71.326C7.71089 72.0901 5.76984 72.7207 4.24879 73.2149C2.34944 73.832 1.10498 74.2363 0.493756 74.422C0.483145 74.1576 0.51494 73.7402 0.604607 73.145C0.808365 71.7924 1.28252 69.6919 2.01904 66.8185C2.01915 66.8181 2.01926 66.8177 2.01936 66.8173ZM32.2498 58.9782L14.2763 41.0388L39.8789 14.3972L58.1581 31.9663L32.2498 58.9782Z" fill="black" stroke="white"/>
</svg>
