<svg width="55" height="62" viewBox="0 0 55 62" fill="none" xmlns="http://www.w3.org/2000/svg">
<path fill-rule="evenodd" clip-rule="evenodd" d="M25.0507 24.6224L31.0133 24.6022C32.0896 24.5972 32.8256 24.7939 33.5315 25.7324L35.2186 28.7598L36.9258 27.6952L33.987 32.877L28.0345 32.8517L29.8518 31.7871L26.7879 26.5599C26.4975 26.0654 26.2872 25.6719 25.8667 25.2581C25.6214 25.016 25.341 24.804 25.0507 24.6224ZM26.4875 49.7544L20.7652 49.7645C19.4986 49.5677 18.6876 48.8765 18.4473 47.9128C18.237 47.0802 18.4423 46.6968 18.8027 45.9803C19.2283 45.1276 19.7339 44.3052 20.2195 43.4727L26.5526 43.4928L26.4875 49.7544ZM17.3759 47.5091L14.3771 42.3172C13.8364 41.3787 13.6361 40.637 14.0867 39.5522L15.849 36.5703L14.0817 35.6117L20.0042 35.5864L22.958 40.7884L21.1357 39.7339L18.1769 45.0217C17.8966 45.5212 17.6613 45.9046 17.5211 46.4748C17.436 46.8179 17.3909 47.161 17.3759 47.5091ZM38.0372 33.9315L40.9058 38.9165C41.3714 40.1174 41.1812 41.1719 40.4753 41.8631C39.8645 42.4585 39.434 42.4736 38.638 42.519C37.6918 42.5745 36.7305 42.5443 35.7743 42.5342L32.6253 36.9941L38.0372 33.9315ZM40.6605 43.0085L37.6968 48.2205C37.1611 49.1641 36.6254 49.709 35.4689 49.8553L32.0245 49.8099L32.0846 51.8281L29.1058 46.6716L32.0996 41.4897L32.1046 43.6089L38.1273 43.5483C38.698 43.5433 39.1436 43.5534 39.7043 43.397C40.0397 43.3062 40.3551 43.1699 40.6605 43.0085ZM18.5674 31.4491L21.416 26.4489C22.2171 25.4398 23.2183 25.0815 24.1645 25.349C24.9806 25.5811 25.2109 25.9544 25.6464 26.6255C26.1671 27.4277 26.6227 28.2804 27.0933 29.118L23.9042 34.6379L18.5674 31.4491ZM2.01134 4.72266H19.7689V2.72461C19.7689 1.97282 20.0743 1.29167 20.5599 0.802246C21.0556 0.30778 21.7314 0 22.4724 0H32.7555C33.5014 0 34.1723 0.30778 34.6629 0.797201C35.1535 1.29167 35.4539 1.97282 35.4539 2.71956V4.72266H52.9862C53.5369 4.72266 54.0426 4.94971 54.408 5.32308C54.7735 5.69141 54.9988 6.19596 54.9988 6.75602V12.402V13.2799H54.1277H0.869888H-0.0012207V12.402V6.75098C-0.0012207 6.19596 0.224066 5.68636 0.589531 5.31803C0.954996 4.95475 1.46064 4.72266 2.01134 4.72266ZM20.64 6.47852H2.01134C1.93625 6.47852 1.86616 6.50879 1.8211 6.5542C1.77103 6.60466 1.741 6.67529 1.741 6.75098V11.519H53.2566V6.75098C53.2566 6.67529 53.2265 6.60466 53.1765 6.5542C53.1314 6.50879 53.0613 6.47852 52.9862 6.47852H34.5828H33.7117V5.60059V2.71956C33.7117 2.45719 33.6015 2.21501 33.4313 2.03841C33.2561 1.86182 33.0208 1.75586 32.7555 1.75586H22.4724C22.207 1.75586 21.9667 1.86182 21.7965 2.03841V2.04346C21.6213 2.22005 21.5162 2.46224 21.5162 2.72461V5.60563V6.48356H20.64V6.47852ZM5.09527 14.5161H50.2978C50.3529 14.5161 50.433 14.5212 50.5331 14.5312C51.1539 14.5868 51.7346 14.8693 52.1602 15.2881C52.6057 15.7321 52.8911 16.3275 52.8911 16.9935C52.8911 17.0389 52.8861 17.1095 52.8761 17.2004L49.0512 59.4722C48.9911 60.1634 48.6958 60.7941 48.2402 61.2533C47.7846 61.7124 47.1738 61.995 46.4729 61.995V61.9899H8.87007V61.995C8.16918 61.995 7.5584 61.7124 7.09781 61.2533C6.64223 60.7941 6.35187 60.1584 6.28678 59.4671L2.51698 17.1953C2.50697 17.0994 2.50697 17.0339 2.50697 16.9935C2.50697 16.3275 2.79233 15.7321 3.2379 15.2881C3.66344 14.8693 4.24418 14.5868 4.86998 14.5312C4.97011 14.5212 5.0452 14.5161 5.09527 14.5161ZM50.2978 16.272H5.10027H5.02017C4.8049 16.2922 4.60464 16.388 4.45445 16.5343C4.32929 16.6605 4.24919 16.8219 4.24919 16.9935C4.24919 17.0389 4.24919 17.0389 4.24919 17.049L8.02399 59.3259C8.04903 59.6034 8.15917 59.8506 8.32938 60.0221C8.46956 60.1634 8.6598 60.2492 8.87508 60.2492V60.2542H46.4779V60.2492C46.6932 60.2492 46.8784 60.1634 47.0186 60.0221C47.1888 59.8506 47.299 59.6034 47.324 59.3259L51.1489 17.054C51.1489 17.049 51.1489 17.0439 51.1489 17.0036C51.1489 16.832 51.0688 16.6756 50.9436 16.5495C50.7934 16.4032 50.5932 16.3022 50.3779 16.2871C50.3729 16.272 50.3479 16.272 50.2978 16.272Z" fill="white"/>
</svg>
